<mxfile host="app.diagrams.net" agent="Mozilla/5.0 (Macintosh; Intel Mac OS X 10_15_7) AppleWebKit/537.36 (KHTML, like Gecko) Chrome/130.0.0.0 Safari/537.36" version="24.8.6">
  <diagram name="第 1 页" id="lS-i0Gt15iTJMl3-oWpZ">
    <mxGraphModel dx="3745" dy="1294" grid="1" gridSize="10" guides="1" tooltips="1" connect="1" arrows="1" fold="1" page="1" pageScale="1" pageWidth="1654" pageHeight="1169" math="1" shadow="0">
      <root>
        <mxCell id="0" />
        <mxCell id="1" parent="0" />
        <mxCell id="y4yGmVKCfS3PrLfLOZ-u-2" value="" style="rounded=1;whiteSpace=wrap;html=1;fillColor=none;strokeColor=#000000;opacity=50;dashed=1;strokeWidth=2;" parent="1" vertex="1">
          <mxGeometry x="-45" y="340" width="1680" height="60" as="geometry" />
        </mxCell>
        <mxCell id="y4yGmVKCfS3PrLfLOZ-u-14" value="" style="rounded=1;whiteSpace=wrap;html=1;fillColor=none;strokeColor=#000000;opacity=50;dashed=1;strokeWidth=2;" parent="1" vertex="1">
          <mxGeometry x="-40" y="170" width="1680" height="60" as="geometry" />
        </mxCell>
        <mxCell id="tqPr3qISnYxZAip9u7IL-3" value="" style="endArrow=classic;html=1;rounded=0;strokeWidth=5;" parent="1" edge="1">
          <mxGeometry width="50" height="50" relative="1" as="geometry">
            <mxPoint x="240" y="480" as="sourcePoint" />
            <mxPoint x="1520" y="480" as="targetPoint" />
          </mxGeometry>
        </mxCell>
        <mxCell id="tqPr3qISnYxZAip9u7IL-4" value="&lt;font style=&quot;font-size: 26px;&quot;&gt;$$t = T$$&lt;/font&gt;" style="text;html=1;align=center;verticalAlign=middle;whiteSpace=wrap;rounded=0;fontSize=26;fontFamily=Times New Roman;" parent="1" vertex="1">
          <mxGeometry x="90" y="490" width="130" height="30" as="geometry" />
        </mxCell>
        <mxCell id="tqPr3qISnYxZAip9u7IL-5" value="&lt;font style=&quot;font-size: 26px;&quot;&gt;$$t = 0$$&lt;/font&gt;" style="text;html=1;align=center;verticalAlign=middle;whiteSpace=wrap;rounded=0;fontSize=26;fontFamily=Times New Roman;" parent="1" vertex="1">
          <mxGeometry x="1570" y="490" width="60" height="30" as="geometry" />
        </mxCell>
        <mxCell id="tqPr3qISnYxZAip9u7IL-6" value="&lt;font style=&quot;font-size: 26px;&quot;&gt;Annealing(Denoise) Path: DDIM / PNDM / DPM-Solver ....&lt;/font&gt;" style="text;html=1;align=center;verticalAlign=middle;whiteSpace=wrap;rounded=0;fontSize=26;fontFamily=Times New Roman;" parent="1" vertex="1">
          <mxGeometry x="367" y="500" width="1000" height="30" as="geometry" />
        </mxCell>
        <mxCell id="tqPr3qISnYxZAip9u7IL-58" value="&lt;font style=&quot;font-size: 26px;&quot;&gt;$$x_T$$&lt;/font&gt;" style="text;html=1;align=center;verticalAlign=middle;whiteSpace=wrap;rounded=0;fontSize=26;fontFamily=Times New Roman;" parent="1" vertex="1">
          <mxGeometry x="85" y="355" width="130" height="30" as="geometry" />
        </mxCell>
        <mxCell id="y4yGmVKCfS3PrLfLOZ-u-1" value="&lt;font style=&quot;font-size: 26px;&quot;&gt;$$x_T$$&lt;/font&gt;" style="text;html=1;align=center;verticalAlign=middle;whiteSpace=wrap;rounded=0;fontSize=26;fontFamily=Times New Roman;" parent="1" vertex="1">
          <mxGeometry x="100" y="184.99" width="130" height="30" as="geometry" />
        </mxCell>
        <mxCell id="y4yGmVKCfS3PrLfLOZ-u-5" style="edgeStyle=orthogonalEdgeStyle;rounded=0;orthogonalLoop=1;jettySize=auto;html=1;exitX=0.5;exitY=1;exitDx=0;exitDy=0;" parent="1" source="tqPr3qISnYxZAip9u7IL-58" target="tqPr3qISnYxZAip9u7IL-58" edge="1">
          <mxGeometry relative="1" as="geometry" />
        </mxCell>
        <mxCell id="y4yGmVKCfS3PrLfLOZ-u-8" value="&lt;font style=&quot;font-size: 24px;&quot;&gt;&lt;b style=&quot;font-size: 24px;&quot;&gt;&amp;nbsp;· · ·&lt;/b&gt;&lt;/font&gt;" style="text;html=1;align=center;verticalAlign=middle;whiteSpace=wrap;rounded=0;fontSize=24;" parent="1" vertex="1">
          <mxGeometry x="1144.75" y="340" width="140" height="60" as="geometry" />
        </mxCell>
        <mxCell id="y4yGmVKCfS3PrLfLOZ-u-9" value="" style="endArrow=classic;html=1;rounded=0;strokeWidth=3;strokeColor=#4D4D4D;" parent="1" edge="1">
          <mxGeometry width="50" height="50" relative="1" as="geometry">
            <mxPoint x="1455" y="370" as="sourcePoint" />
            <mxPoint x="1557.5" y="369.78000000000003" as="targetPoint" />
          </mxGeometry>
        </mxCell>
        <mxCell id="y4yGmVKCfS3PrLfLOZ-u-10" value="&lt;font style=&quot;font-size: 26px;&quot;&gt;$$x_0$$&lt;/font&gt;" style="text;html=1;align=center;verticalAlign=middle;whiteSpace=wrap;rounded=0;fontSize=26;fontFamily=Times New Roman;" parent="1" vertex="1">
          <mxGeometry x="1535" y="355" width="110" height="30" as="geometry" />
        </mxCell>
        <mxCell id="y4yGmVKCfS3PrLfLOZ-u-15" value="&lt;div style=&quot;font-size: 26px;&quot;&gt;&lt;font style=&quot;font-size: 26px;&quot;&gt;LML&lt;/font&gt;&lt;/div&gt;&lt;font style=&quot;font-size: 26px;&quot;&gt;(Ours)&lt;/font&gt;" style="text;html=1;align=center;verticalAlign=middle;whiteSpace=wrap;rounded=0;fontSize=26;fontFamily=Times New Roman;" parent="1" vertex="1">
          <mxGeometry x="-15" y="355" width="100" height="30" as="geometry" />
        </mxCell>
        <mxCell id="ADp_13OqhtLV6-jOQkto-5" value="&lt;font style=&quot;font-size: 24px;&quot;&gt;&lt;b style=&quot;font-size: 24px;&quot;&gt;&amp;nbsp;· · ·&lt;/b&gt;&lt;/font&gt;" style="text;html=1;align=center;verticalAlign=middle;whiteSpace=wrap;rounded=0;fontSize=24;" parent="1" vertex="1">
          <mxGeometry x="1150" y="170" width="140" height="60" as="geometry" />
        </mxCell>
        <mxCell id="ADp_13OqhtLV6-jOQkto-6" value="" style="endArrow=classic;html=1;rounded=0;strokeWidth=3;strokeColor=#4D4D4D;" parent="1" edge="1">
          <mxGeometry width="50" height="50" relative="1" as="geometry">
            <mxPoint x="1460" y="200" as="sourcePoint" />
            <mxPoint x="1562.75" y="199.78000000000003" as="targetPoint" />
          </mxGeometry>
        </mxCell>
        <mxCell id="ADp_13OqhtLV6-jOQkto-7" value="&lt;div style=&quot;font-size: 26px;&quot;&gt;&lt;span style=&quot;font-size: 26px;&quot;&gt;Langevin&lt;/span&gt;&lt;/div&gt;&lt;div style=&quot;font-size: 26px;&quot;&gt;&lt;span style=&quot;font-size: 26px;&quot;&gt;(Baselines)&lt;/span&gt;&lt;/div&gt;" style="text;html=1;align=center;verticalAlign=middle;whiteSpace=wrap;rounded=0;fontSize=26;fontFamily=Times New Roman;" parent="1" vertex="1">
          <mxGeometry x="-10" y="184.99" width="100" height="30" as="geometry" />
        </mxCell>
        <mxCell id="ADp_13OqhtLV6-jOQkto-8" value="&lt;font style=&quot;font-size: 26px;&quot;&gt;$$x_0$$&lt;/font&gt;" style="text;html=1;align=center;verticalAlign=middle;whiteSpace=wrap;rounded=0;fontSize=26;fontFamily=Times New Roman;" parent="1" vertex="1">
          <mxGeometry x="1540" y="184.99" width="110" height="30" as="geometry" />
        </mxCell>
        <mxCell id="E4KFlrZBZKq98RAmflxi-3" value="" style="group" vertex="1" connectable="0" parent="1">
          <mxGeometry x="1265" y="340" width="180" height="60" as="geometry" />
        </mxCell>
        <mxCell id="E4KFlrZBZKq98RAmflxi-4" value="" style="rounded=1;whiteSpace=wrap;html=1;fillColor=#d5e8d4;strokeColor=#82b366;opacity=50;" vertex="1" parent="E4KFlrZBZKq98RAmflxi-3">
          <mxGeometry width="180" height="60" as="geometry" />
        </mxCell>
        <mxCell id="E4KFlrZBZKq98RAmflxi-5" value="&lt;span style=&quot;color: rgb(31, 31, 31); text-align: left; font-size: 26px;&quot;&gt;LM-Langevin&lt;/span&gt;" style="rounded=1;whiteSpace=wrap;html=1;fillColor=none;strokeColor=none;opacity=30;gradientColor=none;fontFamily=Times New Roman;" vertex="1" parent="E4KFlrZBZKq98RAmflxi-3">
          <mxGeometry x="10" y="6.8700000000000045" width="160" height="46.25" as="geometry" />
        </mxCell>
        <mxCell id="E4KFlrZBZKq98RAmflxi-7" value="" style="group" vertex="1" connectable="0" parent="1">
          <mxGeometry x="1290" y="170" width="130" height="60" as="geometry" />
        </mxCell>
        <mxCell id="tqPr3qISnYxZAip9u7IL-50" value="" style="rounded=1;whiteSpace=wrap;html=1;fillColor=#f8cecc;strokeColor=#b85450;opacity=50;" parent="E4KFlrZBZKq98RAmflxi-7" vertex="1">
          <mxGeometry width="130" height="60" as="geometry" />
        </mxCell>
        <mxCell id="tqPr3qISnYxZAip9u7IL-51" value="&lt;span style=&quot;color: rgb(31, 31, 31); text-align: left; font-size: 27px;&quot;&gt;Langevin&lt;/span&gt;" style="rounded=1;whiteSpace=wrap;html=1;fillColor=none;strokeColor=none;opacity=30;gradientColor=none;fontFamily=Times New Roman;" parent="E4KFlrZBZKq98RAmflxi-7" vertex="1">
          <mxGeometry x="2.5" y="6.8700000000000045" width="127.5" height="46.25" as="geometry" />
        </mxCell>
        <mxCell id="E4KFlrZBZKq98RAmflxi-8" value="" style="group;movable=0;resizable=0;rotatable=0;deletable=0;editable=0;locked=1;connectable=0;" vertex="1" connectable="0" parent="1">
          <mxGeometry x="1347.5" y="250" width="297.5" height="70" as="geometry" />
        </mxCell>
        <mxCell id="tqPr3qISnYxZAip9u7IL-52" value="" style="rounded=1;whiteSpace=wrap;html=1;fillColor=#b1ddf0;strokeColor=#10739e;opacity=50;" parent="E4KFlrZBZKq98RAmflxi-8" vertex="1">
          <mxGeometry x="33.75" width="230" height="70" as="geometry" />
        </mxCell>
        <mxCell id="tqPr3qISnYxZAip9u7IL-53" value="&lt;span style=&quot;color: rgb(31, 31, 31); text-align: left; font-size: 26px;&quot;&gt;LM-approximated&lt;/span&gt;&lt;div style=&quot;font-size: 26px;&quot;&gt;&lt;span style=&quot;color: rgb(31, 31, 31); text-align: left;&quot;&gt;Hessian geometry&lt;/span&gt;&lt;/div&gt;" style="rounded=1;whiteSpace=wrap;html=1;fillColor=none;strokeColor=none;opacity=30;gradientColor=none;fontFamily=Times New Roman;" parent="E4KFlrZBZKq98RAmflxi-8" vertex="1">
          <mxGeometry y="9.379999999999995" width="297.5" height="46.25" as="geometry" />
        </mxCell>
        <mxCell id="E4KFlrZBZKq98RAmflxi-12" value="" style="endArrow=classic;html=1;rounded=0;strokeWidth=2;strokeColor=#4D4D4D;exitX=0.45;exitY=0.986;exitDx=0;exitDy=0;exitPerimeter=0;entryX=0.458;entryY=0;entryDx=0;entryDy=0;entryPerimeter=0;" edge="1" parent="1" source="tqPr3qISnYxZAip9u7IL-50" target="E4KFlrZBZKq98RAmflxi-4">
          <mxGeometry width="50" height="50" relative="1" as="geometry">
            <mxPoint x="1347.5" y="235" as="sourcePoint" />
            <mxPoint x="1347.5" y="335" as="targetPoint" />
          </mxGeometry>
        </mxCell>
        <mxCell id="E4KFlrZBZKq98RAmflxi-14" value="" style="endArrow=none;html=1;rounded=0;strokeWidth=2;" edge="1" parent="1">
          <mxGeometry width="50" height="50" relative="1" as="geometry">
            <mxPoint x="1347.5" y="285" as="sourcePoint" />
            <mxPoint x="1380" y="285" as="targetPoint" />
          </mxGeometry>
        </mxCell>
      </root>
    </mxGraphModel>
  </diagram>
</mxfile>
